<svg width="191" height="192" viewBox="0 0 191 192" fill="none" xmlns="http://www.w3.org/2000/svg">
<path d="M186.41 95.9542C186.41 146.167 145.709 186.86 95.5039 186.86C45.2993 186.86 4.58984 146.159 4.58984 95.9542C4.58984 45.7495 45.2914 5.04797 95.5039 5.04797C145.709 5.04797 186.41 45.7495 186.41 95.9542Z" fill="#072354"/>
<path d="M95.4961 0.450195C42.7441 0.450195 0 43.2101 0 95.9463C0 148.698 42.7441 191.45 95.4961 191.45C148.248 191.45 191 148.69 191 95.9463C191 43.2101 148.248 0.450195 95.4961 0.450195ZM98.1538 182.988C54.487 185.811 21.9004 152.192 15.0708 131.553C15.2917 131.388 15.7727 131.096 15.7727 131.096C26.3247 128.115 36.5533 133.477 48.1542 143.241C56.5453 150.299 73.288 169.629 93.8005 178.903C95.7248 179.912 96.5134 180.315 98.6506 181.064C98.6112 181.3 98.28 182.499 98.1538 182.988ZM129.013 176.498C127.594 177.026 116.915 180.417 108.619 178.122C107.034 177.657 105.52 177.16 103.95 176.584C92.6018 172.389 82.1208 165.433 72.2155 157.712C59.7314 147.973 50.662 135.354 33.8562 127.46C33.935 127.295 34.0533 126.948 34.1007 126.608C43.4223 127.705 55.0942 128.856 70.449 138.272C76.3716 141.9 100.701 156.245 103.95 157.838C110.543 161.009 117.333 163.667 124.336 165.741C128.264 166.876 132.247 167.831 136.34 168.493C136.34 168.493 139.605 168.895 140.598 168.998L141.229 170.48C138.729 172.034 132.073 175.409 129.013 176.498ZM158.713 156.813C149.108 165.094 135.433 163.304 126.095 161.072C111.789 157.618 88.9504 144.676 82.9646 140.725C83.1145 140.552 83.4851 139.999 83.6349 139.842C94.802 143.848 139.81 155.149 169.06 140.283C169.273 140.512 169.47 140.764 169.683 140.985C169.88 141.198 170.424 141.695 170.653 141.916C167.522 147.003 162.428 153.083 158.713 156.813ZM153.248 139.739C154.439 138.541 155.377 137.066 155.953 135.418L160.07 122.571H153.65C148.571 130.276 136.379 129.108 126.284 122.823C110.386 112.918 99.3604 106.829 91.5529 106.372C90.4567 106.301 89.4235 106.348 88.4535 106.514C88.4535 106.514 88.4457 106.514 88.4378 106.514C89.6602 118.714 92.0576 126.269 93.4141 129.747C94.0134 131.285 94.3999 132.026 94.3999 132.026L92.933 131.735C92.933 131.735 92.4756 131.19 91.7264 130.039C89.8415 127.145 86.1034 120.426 83.1302 108.935C80.8905 110.733 79.3132 113.32 78.8322 116.277C78.7375 117.121 78.6981 117.973 78.6981 118.825L81.9394 126.396L86.1507 136.222C84.6523 135.662 82.7517 134.873 80.5593 133.966C65.5831 127.736 35.2126 115.142 12.2002 125.875C8.8406 116.53 6.99521 106.451 6.99521 95.9463C6.99521 47.0981 46.6242 7.48482 95.4803 7.48482C144.336 7.48482 183.918 47.0902 183.918 95.9463C183.918 103.919 182.262 115.449 180.866 118.998C176.047 129.976 165.992 136.482 153.248 139.739Z" fill="white"/>
<path d="M142.925 85.5994C144.021 78.3754 146.402 71.5695 149.809 65.4181C145.574 62.9024 140.961 60.9623 136.087 59.669C131.686 58.5097 127.065 57.8945 122.302 57.8945C112.893 57.8945 104.053 60.2999 96.3476 64.527C94.9517 67.09 93.753 69.7872 92.7751 72.5868L92.7514 72.6105L92.7199 72.7051C89.5575 73.5726 86.537 74.795 83.7215 76.3408C80.638 81.041 78.832 86.664 78.832 92.7128C78.832 96.7506 79.6364 100.607 81.0954 104.124C81.6238 105.402 82.2389 106.624 82.9251 107.807L82.1443 103.012C84.3603 101.482 87.1679 100.749 90.4407 100.749C99.0132 100.749 110.756 105.82 123.358 115.008C123.256 114.739 123.153 114.463 123.059 114.195C121.056 108.706 119.967 102.768 119.967 96.5851C119.967 89.4321 121.426 82.6262 124.06 76.4354C119.873 74.1247 115.251 72.508 110.354 71.7351L110.559 71.0805C116.505 71.5537 122.168 73.0048 127.396 75.2761C125.677 80.3312 124.746 85.7413 124.746 91.3722C124.746 97.6261 125.898 103.604 127.988 109.124C135.748 112.09 142.633 116.829 148.13 122.855L148.847 122.531C144.604 114.227 142.215 104.834 142.215 94.8658C142.223 91.7192 142.459 88.6198 142.925 85.5994Z" fill="white"/>
<path d="M54.4712 66.7904C55.0391 72.9102 56.0722 83.3675 56.0722 83.3675H57.9097C57.9097 83.3675 58.9665 72.9102 59.5501 66.7904C59.8892 63.0838 61.3639 61.4592 63.998 60.8125C66.1667 60.2762 72.8859 59.3062 72.8859 59.3062V57.587C72.8859 57.587 65.8828 56.8378 63.6273 56.0807C61.9475 55.505 60.2125 54.8662 59.3371 51.7984C58.6668 49.4403 57.8624 42.0981 57.8624 42.0981H57.0185H56.1432C56.1432 42.0981 55.3309 49.4403 54.6605 51.7984C53.8167 54.8662 52.0738 55.505 50.3782 56.0807C48.1227 56.8378 41.1196 57.587 41.1196 57.587V59.3062C41.1196 59.3062 47.8231 60.2762 49.9997 60.8125C52.618 61.4592 54.1006 63.0838 54.4712 66.7904Z" fill="white"/>
<path d="M126.363 49.3221L124.857 55.9308C120.449 52.2321 114.873 49.8583 108.769 49.464L108.524 48.494C110.993 47.3899 113.737 46.7827 116.616 46.7827C120.157 46.7669 123.485 47.6975 126.363 49.3221Z" fill="white"/>
</svg>
