<svg xmlns="http://www.w3.org/2000/svg" xmlns:xlink="http://www.w3.org/1999/xlink" viewBox="0 0 170.55 161.61"><defs><style>.cls-1,.cls-11,.cls-12,.cls-14,.cls-17,.cls-7,.cls-8{fill:none;}.cls-1{clip-rule:evenodd;}.cls-18,.cls-2{fill:#1d1d1b;}.cls-10,.cls-13,.cls-15,.cls-16,.cls-2,.cls-3,.cls-4,.cls-9{fill-rule:evenodd;}.cls-3{fill:#d7b46a;}.cls-4{fill:#86120a;}.cls-5{clip-path:url(#clip-path);}.cls-6{clip-path:url(#clip-path-2);}.cls-14,.cls-7{stroke:#a47500;}.cls-7{stroke-miterlimit:22.93;stroke-width:0.57px;}.cls-8{stroke:#3c3c3b;stroke-width:0.73px;}.cls-11,.cls-12,.cls-14,.cls-17,.cls-8{stroke-linecap:round;stroke-linejoin:round;}.cls-9{fill:#0075bf;}.cls-10{fill:#fff7b2;}.cls-11{stroke:#6f6f6e;stroke-width:0.28px;}.cls-12,.cls-17{stroke:#c0932e;}.cls-12{stroke-width:0.69px;}.cls-13{fill:#9d0f12;}.cls-14,.cls-17{stroke-width:0.46px;}.cls-15{fill:#fff482;}.cls-16{fill:#fff;}</style><clipPath id="clip-path"><path class="cls-1" d="M83.49,23c23.86,0,43.2,25.86,43.2,57.77s-19.34,57.77-43.2,57.77S40.3,112.71,40.3,80.8,59.64,23,83.49,23"/></clipPath><clipPath id="clip-path-2"><path class="cls-1" d="M126.6,77.05c3.07,25.47-13,61.52-43.1,61.52s-47-34.33-43.1-61.52Z"/></clipPath></defs><title>Recurso 2</title><g id="Capa_2" data-name="Capa 2"><g id="Capa_1-2" data-name="Capa 1"><path class="cls-2" d="M83.49,0c35.9,0,65,36.18,65,80.8s-29.11,80.8-65,80.8-65-36.18-65-80.8S47.59,0,83.49,0"/><path class="cls-3" d="M83.49,1.42c35,0,63.41,35.54,63.41,79.39s-28.39,79.39-63.41,79.39S20.08,124.65,20.08,80.8,48.47,1.42,83.49,1.42"/><path class="cls-2" d="M83.49,4.66c33.33,0,60.35,34.09,60.35,76.15S116.83,157,83.49,157,23.14,122.86,23.14,80.8s27-76.15,60.35-76.15"/><path class="cls-3" d="M83.49,5.46c32.79,0,59.37,33.73,59.37,75.34s-26.58,75.34-59.37,75.34S24.12,122.42,24.12,80.8,50.7,5.46,83.49,5.46"/><path class="cls-2" d="M83.49,22.09c24.41,0,44.19,26.29,44.19,58.72s-19.79,58.72-44.19,58.72S39.3,113.23,39.3,80.8,59.09,22.09,83.49,22.09"/><path class="cls-4" d="M83.49,23c23.86,0,43.2,25.86,43.2,57.77s-19.34,57.77-43.2,57.77S40.3,112.71,40.3,80.8,59.64,23,83.49,23"/><g class="cls-5"><path class="cls-2" d="M126.6,77.05c3.07,25.47-13,61.52-43.1,61.52s-47-34.33-43.1-61.52Z"/><g class="cls-6"><path class="cls-7" d="M6.59,139.52l.22-.39c1.63-2.94,3.24-5.89,4.87-8.83s3.24-5.89,4.85-8.83,3.26-5.89,4.87-8.83,3.22-5.89,4.87-8.83S29.5,97.92,31.15,95s3.22-5.89,4.87-8.83,3.24-5.89,4.87-8.83a3.85,3.85,0,0,0,.2-.39"/><path class="cls-7" d="M18.75,139.52c.05-.12.13-.26.18-.39L23,130.3l4.06-8.83c1.37-2.94,2.71-5.89,4.08-8.83s2.69-5.89,4.07-8.83S37.9,97.92,39.28,95s2.69-5.89,4.08-8.83,2.69-5.89,4.07-8.83l.16-.39"/><path class="cls-7" d="M30.91,139.52c.05-.12.09-.26.15-.39,1.1-2.94,2.16-5.89,3.26-8.83s2.18-5.89,3.28-8.83,2.18-5.89,3.28-8.83,2.16-5.89,3.26-8.83,2.16-5.89,3.28-8.83,2.16-5.89,3.28-8.83,2.18-5.89,3.26-8.83c0-.13.09-.26.13-.39"/><path class="cls-7" d="M43,139.52l.11-.39,2.47-8.83,2.47-8.83,2.47-8.83q1.21-4.41,2.47-8.83c.82-2.94,1.63-5.89,2.47-8.83s1.63-5.89,2.47-8.83l2.47-8.83a3,3,0,0,0,.09-.39"/><path class="cls-7" d="M55.21,139.52a3.09,3.09,0,0,1,.07-.39q.85-4.41,1.67-8.83c.57-2.94,1.12-5.89,1.68-8.83s1.12-5.89,1.67-8.83,1.1-5.89,1.67-8.83,1.1-5.89,1.68-8.83,1.1-5.89,1.68-8.83,1.1-5.89,1.67-8.83l.06-.39"/><path class="cls-7" d="M67.37,139.52c0-.12,0-.26,0-.39l.88-8.83c.29-2.94.57-5.89.86-8.83s.59-5.89.88-8.83.57-5.89.86-8.83.59-5.89.88-8.83.59-5.89.9-8.83.57-5.89.86-8.83a2.84,2.84,0,0,0,0-.39"/><path class="cls-7" d="M79.53,139.52v-.39c0-2.94.06-5.89.07-8.83s.05-5.89.07-8.83.05-5.89.07-8.83,0-5.89.07-8.83,0-5.89.07-8.83.06-5.89.09-8.83,0-5.89.07-8.83a2.88,2.88,0,0,0,0-.39"/><path class="cls-7" d="M91.67,139.52c0-.12,0-.26,0-.39l-.71-8.83c-.24-2.94-.49-5.89-.73-8.83l-.71-8.83c-.26-2.94-.49-5.89-.75-8.83S88.24,97.92,88,95s-.48-5.89-.71-8.83l-.71-8.83a3,3,0,0,0-.05-.39"/><path class="cls-7" d="M103.83,139.52c0-.12-.06-.26-.07-.39q-.74-4.41-1.52-8.83c-.51-2.94-1-5.89-1.52-8.83s-1-5.89-1.52-8.83-1-5.89-1.54-8.83-1-5.89-1.52-8.83-1-5.89-1.5-8.83-1-5.89-1.54-8.83a3.08,3.08,0,0,0-.07-.39"/><path class="cls-7" d="M116,139.52a3.41,3.41,0,0,0-.11-.39l-2.31-8.83q-1.18-4.41-2.33-8.83t-2.33-8.83c-.79-2.94-1.56-5.89-2.34-8.83S105,97.92,104.27,95s-1.56-5.89-2.31-8.83-1.56-5.89-2.33-8.83a3.22,3.22,0,0,0-.13-.39"/><path class="cls-7" d="M128.12,139.52c0-.12-.11-.26-.15-.39q-1.54-4.41-3.11-8.83c-1-2.94-2.07-5.89-3.13-8.83s-2.07-5.89-3.11-8.83l-3.13-8.83Q114,99.39,112.38,95c-1.06-2.94-2.07-5.89-3.11-8.83s-2.07-5.89-3.11-8.83a3.67,3.67,0,0,0-.16-.39"/><path class="cls-7" d="M140.28,139.52c-.05-.12-.13-.26-.18-.39l-3.9-8.83c-1.32-2.94-2.62-5.89-3.94-8.83l-3.9-8.83c-1.34-2.94-2.62-5.89-4-8.83s-2.6-5.89-3.9-8.83-2.62-5.89-3.9-8.83-2.62-5.89-3.94-8.83a3.74,3.74,0,0,0-.18-.39"/><path class="cls-7" d="M152.44,139.52c-.05-.12-.16-.26-.22-.39q-2.33-4.41-4.71-8.83l-4.72-8.83q-2.33-4.41-4.71-8.83c-1.59-2.94-3.15-5.89-4.74-8.83s-3.15-5.89-4.72-8.83-3.13-5.89-4.69-8.83-3.15-5.89-4.72-8.83l-.22-.39"/><path class="cls-7" d="M164.6,139.52c-.07-.12-.18-.26-.26-.39-1.81-2.94-3.66-5.89-5.49-8.83s-3.68-5.89-5.53-8.83-3.66-5.89-5.51-8.83-3.68-5.89-5.55-8.83-3.66-5.89-5.51-8.83-3.66-5.89-5.49-8.83-3.68-5.89-5.53-8.83c-.07-.13-.16-.26-.26-.39"/><path class="cls-7" d="M0,130.3H170.55"/><path class="cls-7" d="M5.69,121.47H164.2"/><path class="cls-7" d="M11.39,112.64H157.86"/><path class="cls-7" d="M17.08,103.8H151.49"/><path class="cls-7" d="M22.78,95H145.15"/><path class="cls-7" d="M28.47,86.14H138.84"/><path class="cls-7" d="M34.17,77.31h98.31"/></g></g><path class="cls-8" d="M47.69,92.38l0,1.52c19.89.16,40.64,1.41,58.19.53,2.45-4.34,5.43-8.79,7.88-13.13l.9,5.87-8.75,13.08-55.72-.92q0-1,.07-2.09c-.86,1.44-2.13,2.89-3,4.33,0,0-.42,1,1.23,1.13s57.3,1.35,57.3,1.35,1.3-.26,1.68-1S116,88.94,116,88.94l.53-.9c.21-1.82.42-8.71-1-9.63l-52.15.54S50.11,90.26,47.69,92.38Z"/><path class="cls-9" d="M47.69,92.38l0,1.52c19.89.16,40.64,1.41,58.19.53,2.45-4.34,5.43-8.79,7.88-13.13l.9,5.87-8.75,13.08-55.72-.92.07-2.09c-.86,1.44-2.13,2.89-3,4.33,0,0-.42,1,1.23,1.13s57.3,1.35,57.3,1.35,1.29-.26,1.68-1S116,88.94,116,88.94l.53-.9c.21-1.82.42-8.71-1-9.63l-52.15.54S50.11,90.26,47.69,92.38"/><path class="cls-10" d="M50.19,94l0,5.35,55.72.93,8.75-13.08-.83-5.42-.07-.45-.3.53-7.58,12.61c-16.88.85-36.8-.28-55.68-.47"/><path class="cls-11" d="M50.19,94l0,5.35,55.72.93,8.75-13.08-.83-5.42-.07-.45-.3.53-7.58,12.61C89,95.27,69.06,94.14,50.19,94Z"/><path class="cls-12" d="M67.51,83.62l-9.75-1.1L53.84,86.3l-.11.88s0,.11.39,0a8.08,8.08,0,0,0,1.34-.6,14.88,14.88,0,0,1,2.67,0c1.37.13,1.91.22,1.91.22a2.61,2.61,0,0,0,1.51.43c.92,0,2-.11,2.61-.06a10.49,10.49,0,0,0,1.43,0l.34-.37Z"/><path class="cls-10" d="M67.51,83.62l-9.75-1.1L53.84,86.3l-.11.88s0,.11.39,0a8.12,8.12,0,0,0,1.34-.6,14.88,14.88,0,0,1,2.67,0c1.37.13,1.91.22,1.91.22a2.61,2.61,0,0,0,1.51.43c.92,0,2-.11,2.61-.06a10.52,10.52,0,0,0,1.43,0l.34-.37Z"/><path class="cls-13" d="M71.91,78.86,65.2,85.1v1.7l26.49,1.35v3.34l-26.51-.87V93l25.9.83a4.67,4.67,0,0,0,2.42-1.26c.14-.34,5.57-7.23,5.57-7.23l-.92-6.23C89.22,79.32,80.86,78.69,71.91,78.86Z"/><path class="cls-8" d="M71.91,78.86,65.2,85.1v1.7l26.49,1.35v3.34l-26.51-.87V93l25.9.83a4.67,4.67,0,0,0,2.42-1.26c.14-.34,5.57-7.23,5.57-7.23l-.92-6.23C89.22,79.32,80.86,78.69,71.91,78.86Z"/><path class="cls-10" d="M65.92,86.81v3.8l25.79.87V88.14C82.66,87.66,74.46,87.24,65.92,86.81Z"/><path class="cls-8" d="M65.92,86.81v3.8l25.79.87V88.14C82.66,87.66,74.46,87.24,65.92,86.81Z"/><line class="cls-8" x1="91.69" y1="88.14" x2="98.19" y2="79.31"/><path class="cls-14" d="M86.08,51.68s.41.72.22,1.15a5.31,5.31,0,0,0-.3.76c-.09.28-.25.24-.2.59a9.72,9.72,0,0,0,.09,1.22c.12.57.34.52.42,1.26a2.41,2.41,0,0,1-.1,1.16,1.31,1.31,0,0,0,1.25-1.62c-.37-1.36-.7-1.62-.68-1.85s.19-.33.42-.73.45-1.13.22-1.35.13-.51-.15-.87a2.46,2.46,0,0,0-1.2-.6C85.74,50.67,86.08,51.68,86.08,51.68Zm-.82,0s-.42.71-.24,1.15a5.38,5.38,0,0,1,.29.77c.08.28.24.25.19.59a9.74,9.74,0,0,1-.11,1.22c-.13.57-.35.52-.45,1.25A2.41,2.41,0,0,0,85,57.81a1.31,1.31,0,0,1-1.22-1.65c.4-1.35.73-1.61.71-1.84s-.19-.33-.41-.73-.42-1.13-.2-1.36-.12-.51.16-.87a2.47,2.47,0,0,1,1.21-.58C85.61,50.67,85.25,51.68,85.25,51.68ZM86.34,50a.48.48,0,0,0,.69.64l0,0s0,0,0,.05a.48.48,0,0,0,.79.36l.07,0a.33.33,0,0,0,.33.32l.11,0,.08.06a.33.33,0,0,0,.33.32h.08l0,0a.33.33,0,0,0,.28.5.33.33,0,0,0-.07.2.33.33,0,0,0,.33.34.33.33,0,0,0,0,.61.47.47,0,0,0,0,.82.47.47,0,0,0-.08.8.47.47,0,0,0-.18.77h0a.47.47,0,0,0-.47.46.48.48,0,0,0,0,.17.47.47,0,0,0-.37.45.46.46,0,0,0,0,.2h-.08a.47.47,0,0,0-.47.47v0h0a.47.47,0,0,0-.46.35h-.1a.47.47,0,0,0-.44.3.47.47,0,0,0,.43.64.47.47,0,0,0,.46-.35h.1a.47.47,0,0,0,.47-.47v0h0a.47.47,0,0,0,.43-.66h.08a.47.47,0,0,0,.47-.46.46.46,0,0,0,0-.17.47.47,0,0,0,.24-.78h0a.47.47,0,0,0,.29-.84.47.47,0,0,0,.06-.86.47.47,0,0,0-.05-.86l0-.06a.33.33,0,0,0-.19-.55v0a.33.33,0,0,0-.19-.6.33.33,0,0,0-.26-.54.34.34,0,0,0-.16,0v0a.47.47,0,0,1-.43-.59.33.33,0,0,0-.33-.34.33.33,0,0,0-.16,0L88,50.7a.48.48,0,0,0-.75-.4l-.06,0a.46.46,0,0,0,0-.06.48.48,0,0,0-.38-.47.32.32,0,0,0,0,0c.21-.07.34-.17.34-.28s-.16-.23-.41-.31l0-.07a.52.52,0,0,0,.26-.16.53.53,0,0,0,.88.19.53.53,0,0,0,.93.32.53.53,0,0,0,.78.58.53.53,0,0,0,.51.65l.14,0a.53.53,0,0,0,.48.74h.12a.53.53,0,0,0,.42.85h.09a.53.53,0,0,0,.41.86h0a.82.82,0,1,0,.44-.13h-.15a.53.53,0,0,0-.32-.94h-.09a.53.53,0,0,0-.41-.86h-.12a.53.53,0,0,0-.42-.85l-.14,0a.52.52,0,0,0,0-.2.53.53,0,0,0-.8-.46.52.52,0,0,0,0-.12.53.53,0,0,0-.93-.35.54.54,0,0,0,0-.12.53.53,0,0,0-.91-.37.53.53,0,0,0-.93-.33.53.53,0,0,0-.95-.1.53.53,0,0,0-.18-.21.54.54,0,0,0,0-.15.57.57,0,0,1,0-.34.58.58,0,0,0-.28-.5.58.58,0,0,0,.08-1,.72.72,0,0,0-.13-1.3.69.69,0,0,0-.25,0,.7.7,0,0,0-.61,1.07.73.73,0,0,0,.27.28.58.58,0,0,0,.06,1,.58.58,0,0,0-.29.5.57.57,0,0,0,0,.23.56.56,0,0,0,0,.11A.55.55,0,0,0,85,48l-.17,0a.53.53,0,0,0-.5.34.53.53,0,0,0-.93.31.53.53,0,0,0-.92.35.51.51,0,0,0,0,.12.53.53,0,0,0-.94.33.54.54,0,0,0,0,.12.53.53,0,0,0-.8.45.52.52,0,0,0,0,.21l-.14,0a.53.53,0,0,0-.43.84h-.12a.53.53,0,0,0-.42.85H79.6a.53.53,0,0,0-.34.94h-.15a.82.82,0,1,0,.44.13h0a.53.53,0,0,0,.42-.85h.09a.53.53,0,0,0,.43-.84l.12,0a.53.53,0,0,0,.49-.73l.14,0a.53.53,0,0,0,.53-.52.51.51,0,0,0,0-.12.53.53,0,0,0,.8-.45.5.5,0,0,0,0-.12.53.53,0,0,0,.94-.31.53.53,0,0,0,.88-.17.52.52,0,0,0,.2.15.32.32,0,0,0,.08.11c-.21.07-.34.17-.34.28s.1.18.26.26a.31.31,0,0,0,0,.07v0a.48.48,0,0,0-.28.43.46.46,0,0,0,0,.05l-.06,0a.48.48,0,0,0-.75.39l-.08.08a.35.35,0,0,0-.16,0,.33.33,0,0,0-.34.33.34.34,0,0,0,0,.1.33.33,0,0,0-.45.49v0a.33.33,0,0,0-.16,0,.33.33,0,0,0-.27.54.33.33,0,0,0-.2.6v0a.33.33,0,0,0-.2.54l0,.06a.47.47,0,0,0-.07.86.47.47,0,0,0,0,.86.47.47,0,0,0,.27.85h0a.47.47,0,0,0,.22.79.47.47,0,0,0,.43.64h.08a.47.47,0,0,0,.42.67h0v0a.47.47,0,0,0,.47.47h.1a.47.47,0,0,0,.45.36.46.46,0,0,0,.29-.1.47.47,0,0,0-.28-.84H84a.47.47,0,0,0-.45-.36h0v0a.47.47,0,0,0-.47-.47H83a.46.46,0,0,0,0-.2.47.47,0,0,0-.36-.46.46.46,0,0,0,0-.17.47.47,0,0,0-.47-.47h0A.47.47,0,0,0,82,55a.47.47,0,0,0-.06-.8.47.47,0,0,0,0-.82.33.33,0,0,0,.05-.61.33.33,0,0,0,.26-.54.33.33,0,0,0,.29-.5l0,0h.08a.33.33,0,0,0,.34-.32l.08-.06.11,0a.33.33,0,0,0,.34-.31l.07,0a.47.47,0,0,0,.32.12.48.48,0,0,0,.48-.47s0,0,0-.05l0,0a.48.48,0,0,0,.65-.69l0-.08a4.24,4.24,0,0,0,.56,0l.48,0A.3.3,0,0,0,86.34,50Z"/><path class="cls-15" d="M86.08,51.68s.41.72.22,1.15a5.3,5.3,0,0,0-.3.76c-.09.28-.25.24-.2.59a9.59,9.59,0,0,0,.09,1.22c.12.57.34.52.42,1.26a2.41,2.41,0,0,1-.1,1.16,1.31,1.31,0,0,0,1.25-1.62c-.37-1.36-.7-1.62-.68-1.85s.19-.33.42-.73.45-1.13.22-1.35.13-.51-.15-.87a2.46,2.46,0,0,0-1.19-.6c-.35-.12,0,.89,0,.89m-.82,0s-.42.71-.24,1.15a5.32,5.32,0,0,1,.29.77c.08.28.24.25.19.59a9.73,9.73,0,0,1-.11,1.22c-.13.57-.35.52-.45,1.25A2.41,2.41,0,0,0,85,57.81a1.31,1.31,0,0,1-1.22-1.65c.4-1.35.73-1.61.71-1.84s-.19-.33-.41-.73-.42-1.13-.2-1.36-.12-.51.16-.87a2.46,2.46,0,0,1,1.21-.58C85.61,50.67,85.25,51.67,85.25,51.67ZM86.34,50a.48.48,0,0,0,.69.64l0,0s0,0,0,.05a.48.48,0,0,0,.79.36l.07,0a.33.33,0,0,0,.33.32l.11,0,.08.06a.33.33,0,0,0,.33.32h.08l0,0a.33.33,0,0,0,.28.5.33.33,0,0,0,.25.54.33.33,0,0,0,0,.61.47.47,0,0,0,0,.82.47.47,0,0,0-.08.8.47.47,0,0,0-.18.77h0a.47.47,0,0,0-.47.46.48.48,0,0,0,0,.17.47.47,0,0,0-.37.45.46.46,0,0,0,0,.2h-.08a.47.47,0,0,0-.47.47v0h0a.47.47,0,0,0-.46.35h-.1a.47.47,0,0,1-.73.2.63.63,0,0,0,1.18.39h.1a.47.47,0,0,0,.47-.47v0h0a.47.47,0,0,0,.43-.66h.08a.47.47,0,0,0,.47-.47.46.46,0,0,0,0-.17.47.47,0,0,0,.24-.78h0a.47.47,0,0,0,.29-.84.47.47,0,0,0,.06-.86.47.47,0,0,0-.05-.87l0-.06a.33.33,0,0,0-.19-.55v0a.33.33,0,0,0-.19-.6.33.33,0,0,0-.26-.54.34.34,0,0,0-.16,0v0a.33.33,0,0,0-.24-.57.11.11,0,1,1-.19,0,.33.33,0,0,0-.33-.34.32.32,0,0,0-.16,0L88,50.7a.48.48,0,0,0-.74-.4l-.06,0a.44.44,0,0,0,0-.06.48.48,0,0,0-.37-.47.33.33,0,0,0,0,0c.21-.07.34-.17.34-.28s-.16-.23-.41-.31l0-.07a.52.52,0,0,0,.26-.16.53.53,0,0,0,.88.19.53.53,0,0,0,.93.32.54.54,0,0,0,0,.12.53.53,0,0,0,.8.46.52.52,0,0,0,0,.12.53.53,0,0,0,.52.53l.14,0a.52.52,0,0,0,0,.2.53.53,0,0,0,.52.53h.12a.53.53,0,0,0,.42.85h.09a.53.53,0,0,0,.41.86h0a.82.82,0,1,0,.44-.13h-.15a.53.53,0,0,0-.32-.94h-.09a.53.53,0,0,0-.41-.86h-.12a.53.53,0,0,0-.42-.85l-.14,0a.51.51,0,0,0,0-.2.53.53,0,0,0-.8-.46.52.52,0,0,0,0-.12.53.53,0,0,0-.93-.35.53.53,0,0,0,0-.12.53.53,0,0,0-.91-.37.53.53,0,0,0-.93-.33.53.53,0,0,0-.95-.1.53.53,0,0,0-.18-.21.55.55,0,0,0,0-.15.57.57,0,0,1,0-.34.58.58,0,0,0-.28-.5.58.58,0,0,0,.08-1,.72.72,0,0,0-.13-1.3.7.7,0,0,0-.86,1,.73.73,0,0,0,.27.28.58.58,0,0,0,.06,1,.58.58,0,0,0-.29.5.57.57,0,0,0,0,.23.59.59,0,0,0,0,.11A.55.55,0,0,0,85,48l-.17,0a.53.53,0,0,0-.5.34.53.53,0,0,0-.93.31.53.53,0,0,0-.92.35.5.5,0,0,0,0,.12.53.53,0,0,0-.92.45.53.53,0,0,0-.8.45.52.52,0,0,0,0,.2l-.14,0a.53.53,0,0,0-.43.84h-.12a.53.53,0,0,0-.53.52.52.52,0,0,0,.11.33H79.6a.53.53,0,0,0-.34.94h-.15a.82.82,0,1,0,.44.13h0a.53.53,0,0,0,.42-.85h.09a.53.53,0,0,0,.43-.84l.12,0a.53.53,0,0,0,.49-.73l.14,0a.53.53,0,0,0,.53-.52.5.5,0,0,0,0-.12.53.53,0,0,0,.8-.45.52.52,0,0,0,0-.12.53.53,0,0,0,.94-.31.53.53,0,0,0,.88-.17.52.52,0,0,0,.2.15.32.32,0,0,0,.08.11c-.21.07-.34.17-.34.28s.1.18.26.26a.3.3,0,0,0,0,.07v0a.48.48,0,0,0-.28.43.5.5,0,0,0,0,.05l-.06,0a.48.48,0,0,0-.75.39l-.08.08a.34.34,0,0,0-.16,0,.33.33,0,0,0-.34.33.34.34,0,0,0,0,.1.33.33,0,0,0-.45.49v0a.32.32,0,0,0-.16,0,.33.33,0,0,0-.27.54.33.33,0,0,0-.2.6v0a.33.33,0,0,0-.2.54l0,.06a.47.47,0,0,0-.07.86.47.47,0,0,0,0,.86.47.47,0,0,0,.27.85h0a.47.47,0,0,0,.22.79.47.47,0,0,0,.43.64h.08a.47.47,0,0,0,.42.67h0v0a.47.47,0,0,0,.47.47h.1a2.48,2.48,0,0,1,1.18.57,1.14,1.14,0,0,0-.72-1.15H84a.47.47,0,0,0-.45-.36h0v0a.47.47,0,0,0-.47-.47H83a.46.46,0,0,0,0-.2.47.47,0,0,0-.36-.46.46.46,0,0,0,0-.17.47.47,0,0,0-.47-.47h0A.47.47,0,0,0,82,55a.47.47,0,0,0-.06-.8.47.47,0,0,0,0-.82.33.33,0,0,0,.05-.61.33.33,0,0,0,.26-.54.33.33,0,0,0,.29-.5l0,0h.08a.33.33,0,0,0,.34-.32l.08-.06.11,0a.33.33,0,0,0,.34-.31l.07,0a.47.47,0,0,0,.32.12.48.48,0,0,0,.48-.47s0,0,0-.05l0,0a.48.48,0,0,0,.65-.69.31.31,0,0,0,0-.08,4.26,4.26,0,0,0,.56,0l.48,0A.3.3,0,0,0,86.34,50Z"/><path class="cls-2" d="M93.85,92.51a1.2,1.2,0,0,0-.9.69l-1.09,1.9c-.12.2,0,9.15,0,9.15a1.19,1.19,0,0,0,1.06.9c.88.06,4.35.12,4.35.12a.77.77,0,0,0,.32-.67c0-.43-.2-9.63-.2-9.63l.8-1.89a.44.44,0,0,0-.49-.61Z"/><path class="cls-3" d="M93.63,92.36a1.2,1.2,0,0,0-.9.69L91.63,95c-.12.2,0,9.15,0,9.15a1.19,1.19,0,0,0,1.06.9c.88.06,4.35.12,4.35.12a.77.77,0,0,0,.32-.67c0-.43-.2-9.63-.2-9.63l.8-1.89a.44.44,0,0,0-.49-.61Z"/><path class="cls-2" d="M94,95.27l1,.09a.54.54,0,0,1,.48.51l.07,6.91a.42.42,0,0,1-.47.42l-1-.09a.54.54,0,0,1-.48-.51l-.07-6.91a.42.42,0,0,1,.47-.42"/><path class="cls-13" d="M93.85,95.19l1,.09a.54.54,0,0,1,.48.51l.07,6.91a.42.42,0,0,1-.47.42l-1-.09a.54.54,0,0,1-.48-.51l-.07-6.91a.42.42,0,0,1,.47-.42"/><path class="cls-2" d="M56.65,92a1.2,1.2,0,0,0-.9.69l-1.09,1.9c-.12.2,0,9.15,0,9.15a1.19,1.19,0,0,0,1.06.9c.88.06,4.35.12,4.35.12a.77.77,0,0,0,.32-.67c0-.43-.2-9.63-.2-9.63l.8-1.89a.44.44,0,0,0-.49-.61Z"/><path class="cls-3" d="M56.43,91.85a1.2,1.2,0,0,0-.9.69l-1.09,1.9c-.12.2,0,9.15,0,9.15a1.19,1.19,0,0,0,1.06.9c.88.06,4.35.12,4.35.12a.77.77,0,0,0,.32-.67c0-.43-.2-9.63-.2-9.63l.8-1.89a.44.44,0,0,0-.49-.6Z"/><path class="cls-2" d="M56.84,94.81l1,0a.49.49,0,0,1,.48.47l.07,6.91a.45.45,0,0,1-.47.45l-1,0a.49.49,0,0,1-.48-.47l-.07-6.91a.45.45,0,0,1,.47-.45"/><path class="cls-13" d="M56.66,94.74l1,0a.49.49,0,0,1,.48.47l.07,6.91a.45.45,0,0,1-.47.45l-1,0a.49.49,0,0,1-.48-.47l-.07-6.91a.45.45,0,0,1,.47-.45"/><path class="cls-2" d="M73.16,64.69c1.3-.26,2.29,0,3.59-2.17a14.41,14.41,0,0,0,1.33-1.74c.32-.35.81.26,1.74,1.5.58.52,1.88,4.11,1.71,1.19.9.87,2.17,1.5,4,3.18,1.85-.23,3.73-.43,5.64-.67,1.48-.84,2.86-.81,4.25-3.15A8.19,8.19,0,0,0,96.25,61c.87-.29,1.79.58,2.4,2.4a37.7,37.7,0,0,0,1.91,3.76c-.78,1.5-1.77,3-2.55,4.46L87.81,71l-8.54.9q-3.3-2.3-6.51-4.6c.12-.9.26-1.76.4-2.63"/><path class="cls-16" d="M85,67l.35.17.41-.06H86l.14,0,.17,0h.17l.35-.06H87l.17,0,.35-.06h.17l.17,0,.38,0,.2-.06.32,0h.17l.17,0,.2,0,.35,0,.17,0,.17,0,.38,0,.14,0h.2l.35-.06.26,0,.23-.14.14,0,.12-.09.12-.06.14-.06L92.2,66l.14-.06.12-.06.15,0,.14-.09.15-.06L93,65.7l.14-.06.12-.06.14-.09.14-.06.15-.12.14-.09.15-.09.14-.09.15-.12.14-.15.14-.12.17-.12a7.8,7.8,0,0,0,1.68-2.92h.09l.06,0,.06,0h.06l0,.06.06,0,.06.06.09,0,.06.06.06.06.06.09.06.09c.4.49.29,1.82.64,2.6S99,65.9,99.41,66.66l.06.09.06.12.06.12.06.09.06.12.06.09,0,.09,0,.06c-5.5,10.5-21.41,1.56-27.6,1.1l1.13-1.45,0-.09,0-.06v-.17l0-.09,0-.17V66.4l0-.09v-.17l0-.06,0-.09v-.17l0-.09,0-.09v-.17l0-.06v-.09l0-.09v-.15l.12,0h.23l.12,0h.09l.14,0,.12,0h.12l.12,0,.12,0,.14-.06.12,0,.14-.06.12-.06.15-.06.12-.06.15-.09.12-.09.14-.12.12-.09.14-.12.11-.14.15-.12.09-.15.14-.17.12-.2.14-.17.12-.17.09-.14,0,0,.12-.12.09-.12.09-.12.09-.09.12-.14.09-.12.09-.12.09-.14.09-.12.09-.12.09-.12.09-.12.09-.09,0-.06h0l.06.06.09.09.09.09.09.12.12.12.09.14A41.22,41.22,0,0,0,81.3,66.4c.72,1.07,3,1,3.73.61"/><path class="cls-2" d="M73.19,62c1,2,1,3.21,6.86,5.47a12.14,12.14,0,0,0,7.29-.75c.93-.35,1.82-.69,2.75-1.07-.09,1-.17,2-.26,3a24.52,24.52,0,0,1-7.15,2.49,11.67,11.67,0,0,1-6-.49L73.4,66.66c-.09-1.56-.14-3.12-.2-4.69"/><path class="cls-16" d="M89.08,66.63a.11.11,0,0,1,.09,0,.9.9,0,0,1,.26-.09,0,0,0,0,1,0,0l0,0v.38a.11.11,0,0,0,0,.09v.26a.29.29,0,0,1,0,.09.48.48,0,0,1,0,.2v.32a.14.14,0,0,0,0,.09V68s0,.12,0,.17v.23l-.2.09-.2.12c-.06,0-.12.06-.17.09l-.2.09a.94.94,0,0,1-.17.09c-.09,0-.17.09-.2.09s-.15.06-.23.12l-.2.09c-.06,0-.15.06-.2.06s-.14.06-.2.12a.54.54,0,0,0-.2.06l-.2.09-.23.09a.54.54,0,0,0-.2.06l-.23.09c-.06,0-.15,0-.2.09a.75.75,0,0,0-.2.06,2.36,2.36,0,0,1-.23.06l-.2.09c-.09,0-.14,0-.23,0l-.23.09-.23.06a2.38,2.38,0,0,1-.23.06.9.9,0,0,0-.23.06,96.22,96.22,0,0,1-.46.12.56.56,0,0,1-.23,0,.68.68,0,0,1-.23.06.9.9,0,0,1-.23.06.87.87,0,0,1-.23.06,1.09,1.09,0,0,1-.26.06c-.06,0-.12,0-.2,0s-.12,0-.15.06H82l-.17.06h-.17a1.26,1.26,0,0,1-.15,0c-.09,0-.14,0-.17,0h-.9c-.06,0-.14,0-.17,0h-.2a.37.37,0,0,0-.17,0h-.17a.36.36,0,0,0-.17,0,.43.43,0,0,0-.2,0l-.17,0a.36.36,0,0,0-.17,0,.37.37,0,0,0-.17,0,2.06,2.06,0,0,1-.2-.06.37.37,0,0,1-.17,0,.42.42,0,0,0-.17,0,.55.55,0,0,0-.2-.06.41.41,0,0,1-.17-.06c-.06,0-.12,0-.2,0l-.17-.06a.41.41,0,0,1-.17-.06c-.06,0-.12,0-.2,0L77,70.25h-.06v0l-.12-.12a.39.39,0,0,0-.09-.12c0-.06-.09-.09-.12-.12a.61.61,0,0,1-.09-.14,3,3,0,0,0-.29-.35c-.06,0-.06-.06-.09-.12L76,69.15s-.06-.09-.12-.12,0-.09-.09-.12a.23.23,0,0,0-.12-.12,3.88,3.88,0,0,0-.26-.35c0-.06-.09-.09-.12-.14a.39.39,0,0,1-.09-.12s-.09-.06-.12-.12L75,68s-.06-.09-.09-.12a3.42,3.42,0,0,0-.32-.32c0-.06,0-.09-.09-.14s-.06-.06-.09-.12l-.09-.09c0-.06-.09-.12-.09-.14a.23.23,0,0,1-.12-.12,1.68,1.68,0,0,1-.2-.23v0h0V66.4a.26.26,0,0,0,0-.15v-.72a.17.17,0,0,0,0-.12v-.84c0-.06,0-.09,0-.12v-.2c.06.06.09.09.09.14a.74.74,0,0,1,.14.17.62.62,0,0,1,.12.14c.06.06.12.09.14.15l.17.17c.06.06.09.12.15.17l.2.17a2.78,2.78,0,0,1,.41.32l.2.17a.76.76,0,0,1,.26.15l.26.17a2.83,2.83,0,0,0,.29.14c.12.06.2.14.32.2l.32.17.35.14.38.2.41.17a1.78,1.78,0,0,1,.4.2c.17,0,.32.12.46.14s.32.14.49.2L80,68a.86.86,0,0,0,.29.06l.26.06.26,0a.83.83,0,0,1,.26.06h.26c.06,0,.17,0,.23.06H82c.09,0,.17,0,.23,0H83a.48.48,0,0,1,.2,0h.26c.06,0,.14,0,.23,0a.57.57,0,0,1,.23,0c.09,0,.15,0,.23,0a.57.57,0,0,1,.23,0c.06,0,.15,0,.2-.06a.9.9,0,0,0,.26,0,.54.54,0,0,0,.2-.06c.09,0,.15,0,.23,0a1.64,1.64,0,0,1,.2-.06c.06,0,.14,0,.23-.06a.54.54,0,0,1,.2-.06.41.41,0,0,1,.17-.06.75.75,0,0,1,.23-.09c.06,0,.14-.06.2-.06s.14-.06.23-.06l.2-.09a.53.53,0,0,1,.2-.06c.06-.06.15-.06.2-.12a.1.1,0,0,0,.09,0l.23-.09a.15.15,0,0,1,.09,0c.09-.06.17-.06.26-.12a.11.11,0,0,0,.09,0l.26-.09a.1.1,0,0,1,.09,0,.47.47,0,0,1,.26-.09s.06-.06.06-.06l.26-.09"/><path class="cls-2" d="M72.47,61.83a15.53,15.53,0,0,0-3.07,9.72c.26,4.89,1.76,7.75,3.47,9.61a56.28,56.28,0,0,0,12,2.11,61.46,61.46,0,0,0,12.27-2.05c4.86-7.2,3-10.44,1.56-13.25a8.65,8.65,0,0,0-1.82-1.77c-2.17-1-3.1-2.29-4.66-4.34-.35-.29-1.3-.58-1.65.29A13.46,13.46,0,0,1,88,67.47c-3.67,3.36-4.74,2.66-6.83,2.92-2.57-.72-5.76-1-6.94-4.83-.87-4.51-1.33-4-1.79-3.73"/><path class="cls-16" d="M85.26,58.41a4.35,4.35,0,1,1-4.34,4.34,4.35,4.35,0,0,1,4.34-4.34"/><path class="cls-17" d="M98.18,68.86c.67,4.76-.14,9.44.68,15,.14.95-.53,1.8,1.58,2.15a56,56,0,0,1,6,1.25,3.5,3.5,0,0,1,2.7,2.84c.07,1.32-.91,5,0,6a4.1,4.1,0,0,0,3.58,1.22,7.89,7.89,0,0,0,3.28-.68,2.57,2.57,0,0,1-1.23-.93,1.42,1.42,0,0,0,1.32-.82c-.43,0-.71-.28-1.21-.88a1.82,1.82,0,0,0,1.55-1.46s-2.78,0-3.24-1.24a55.39,55.39,0,0,1-1-5.69A3,3,0,0,0,109,83.24a32.19,32.19,0,0,1-5.57-.78,6.94,6.94,0,0,1-1.46-.53l-.15-1s-.52-5.79-.41-7.44-.08-5.31-1.61-7.07a7.79,7.79,0,0,0-6-2.57C95.72,65.49,97.76,65.86,98.18,68.86Z"/><path class="cls-10" d="M98.19,68.86c.67,4.76-.14,9.44.68,15,.14.95-.53,1.8,1.58,2.15a56,56,0,0,1,6,1.25,3.5,3.5,0,0,1,2.7,2.84c.07,1.32-.91,5,0,6a4.1,4.1,0,0,0,3.58,1.22,7.89,7.89,0,0,0,3.28-.68,2.57,2.57,0,0,1-1.23-.93,1.42,1.42,0,0,0,1.32-.82c-.43,0-.71-.28-1.21-.88a1.82,1.82,0,0,0,1.55-1.46s-2.78,0-3.24-1.23a55.42,55.42,0,0,1-1-5.69A3,3,0,0,0,109,83.24a32.17,32.17,0,0,1-5.57-.78,6.92,6.92,0,0,1-1.46-.53l-.15-1s-.52-5.79-.41-7.44-.08-5.31-1.61-7.07a7.79,7.79,0,0,0-6-2.57c1.9,1.61,3.94,2,4.36,5"/><path class="cls-17" d="M72.25,99.87A9.08,9.08,0,0,1,72,103a15.29,15.29,0,0,1-2.12,3.43c2.14-1,1.86-.44,3.7-1.67a2.49,2.49,0,0,1,1,1.74c.69-.48,1.85-1,2.54-1.52a2.89,2.89,0,0,1,1,2.66c3-1.71,1.46-6.71,1.67-9.34a9.53,9.53,0,0,1,.71-3.75,12.87,12.87,0,0,0,1.14-2.87,19.79,19.79,0,0,1,.37-2c.14-.8-.15-2.88.07-3.5A3.47,3.47,0,0,1,82.87,85a14.72,14.72,0,0,0,1.38-4.79c0-1.51-.7-4.83-.59-5.6a14.27,14.27,0,0,1,.82-3.77c.8-1.29.45-1.51-.63-1.81-2.4-.66-4,.54-4.7,2.74a10.9,10.9,0,0,0-.48,3c0,3,0,5.68-.33,6.26s-2.4,3.33-2.48,4.77-.15,4.51-1,5.48-1.93,1.43-2.21,4.11S72.25,99.87,72.25,99.87Z"/><path class="cls-10" d="M72.25,99.87A9.08,9.08,0,0,1,72,103a15.31,15.31,0,0,1-2.12,3.43c2.14-1,1.86-.44,3.7-1.67a2.49,2.49,0,0,1,1,1.74c.69-.48,1.85-1,2.54-1.52a2.89,2.89,0,0,1,1,2.66c3-1.71,1.46-6.71,1.67-9.34a9.53,9.53,0,0,1,.71-3.75,12.87,12.87,0,0,0,1.14-2.87,19.78,19.78,0,0,1,.37-2c.14-.8-.15-2.88.07-3.5A3.48,3.48,0,0,1,82.87,85a14.72,14.72,0,0,0,1.38-4.79c0-1.51-.7-4.83-.59-5.6a14.27,14.27,0,0,1,.82-3.77c.8-1.29.45-1.51-.63-1.81-2.4-.66-4,.54-4.7,2.74a10.91,10.91,0,0,0-.48,3c0,3,0,5.68-.33,6.26s-2.4,3.33-2.48,4.77-.15,4.51-1,5.48-1.93,1.43-2.21,4.11-.34,4.42-.34,4.42"/><path class="cls-18" d="M105.71,139.78a.72.72,0,0,1,.14.16l2.26,3.24a.74.74,0,0,1,.1.19l1.86-1.3-.22-.32a1,1,0,0,1-.19.17l-1,.72-1-1.41,1-.73a.81.81,0,0,1,.2-.12l-.2-.29a.69.69,0,0,1-.18.16l-1,.73-1-1.37,1.07-.75a.55.55,0,0,1,.18-.09l-.2-.29Zm-1.43,4-.46-2,1.64,1.3Zm.08.33,1.38-.86,1,.79a.47.47,0,0,1,.12.14l.72-.45a.81.81,0,0,1-.19-.1L104,141l-.1-.1-.53.33a.75.75,0,0,1,.05.15l.92,4.17a.91.91,0,0,1,0,.2l.35-.22a.55.55,0,0,1-.07-.17Zm-3.23-1.66a.83.83,0,0,1,.11.18l1.7,3.57a.83.83,0,0,1,.07.2l.7-.34a.66.66,0,0,1-.11-.18l-1.7-3.57a.65.65,0,0,1-.07-.2Zm-3.27,1.41.15.37a1.1,1.1,0,0,1,.24-.13l.88-.36,1.43,3.51a.73.73,0,0,1,.05.2l.72-.29a.74.74,0,0,1-.1-.19l-1.43-3.51.88-.36A1.17,1.17,0,0,1,101,143l-.15-.37Zm-3,1.92,3.39,2.44.1.08,0,0,.6-.2a.41.41,0,0,1-.09-.18l-1.27-3.75a.63.63,0,0,1,0-.21l-.37.12a.78.78,0,0,1,.09.19l1.05,3.11L95.06,145c-.08-.06-.09-.07-.12-.12l-.66.22a.79.79,0,0,1,.09.19L95.63,149a.84.84,0,0,1,0,.21l.37-.12a.74.74,0,0,1-.09-.19Zm-3.3,0a.71.71,0,0,1,.07.2l.8,3.87a.73.73,0,0,1,0,.21l2.22-.46-.08-.38a1,1,0,0,1-.24.08l-1.24.26-.35-1.68,1.25-.26a.8.8,0,0,1,.23,0l-.07-.35a.69.69,0,0,1-.23.07l-1.24.26-.34-1.64,1.28-.26a.54.54,0,0,1,.21,0l-.07-.35Zm-1.73.33a.81.81,0,0,1,.06.2l.55,3.91a.83.83,0,0,1,0,.21l.77-.11a.67.67,0,0,1-.06-.2l-.55-3.91a.65.65,0,0,1,0-.21Zm-2.41,2.42-.14-1.83.45,0a.81.81,0,0,1,.92.83.92.92,0,0,1-.34.85,1,1,0,0,1-.5.16Zm0,.33.46,0c1-.08,1.54-.6,1.48-1.4s-.62-1.16-1.5-1.09l-1.38.11a.83.83,0,0,1,0,.21l.3,3.94a.9.9,0,0,1,0,.21l.78-.06a.69.69,0,0,1,0-.21Zm-4.15.32.66-2,.73,2Zm-.1.32,1.62,0,.43,1.18a.47.47,0,0,1,0,.18h.85a.78.78,0,0,1-.11-.18l-1.52-4a.63.63,0,0,1,0-.14h-.63a.71.71,0,0,1,0,.16l-1.38,4a1,1,0,0,1-.09.18h.41a.55.55,0,0,1,0-.18Zm-3.94.74a2.32,2.32,0,0,0,1.17.47,1.69,1.69,0,0,0,1-.15,1.34,1.34,0,0,0,.65-1,1.16,1.16,0,0,0-.16-.76,2,2,0,0,0-.77-.67c-.69-.42-.84-.6-.8-1a.67.67,0,0,1,.79-.56A1.5,1.5,0,0,1,82,147l.19-.45a2.26,2.26,0,0,0-1-.35,1.28,1.28,0,0,0-1.58,1c-.06.53.19.9.89,1.34a5.52,5.52,0,0,1,.59.4.69.69,0,0,1,.24.64.76.76,0,0,1-.91.65,1.39,1.39,0,0,1-1-.59Zm-5-.92a2.33,2.33,0,0,0,1.1.62,1.68,1.68,0,0,0,1,0,1.34,1.34,0,0,0,.77-.91,1.16,1.16,0,0,0-.06-.77,2,2,0,0,0-.68-.76c-.63-.5-.76-.7-.67-1.05a.67.67,0,0,1,.85-.46,1.51,1.51,0,0,1,.81.56l.25-.42a2.26,2.26,0,0,0-.93-.47,1.28,1.28,0,0,0-1.69.82c-.13.51.07.91.71,1.44a5.28,5.28,0,0,1,.54.48.69.69,0,0,1,.16.66.76.76,0,0,1-1,.53,1.38,1.38,0,0,1-.89-.71Zm-2.59-5a1.09,1.09,0,0,1,0,.23l.08,4.19a.7.7,0,0,1,0,.18l.64.2a1.05,1.05,0,0,1,.08-.16l2.5-3.41a.82.82,0,0,1,.14-.15l-.39-.12a.4.4,0,0,1-.08.15l-2.18,2.95-.07-3.64a.6.6,0,0,1,0-.15l0,0Zm-3.94-.67-.32,3.36a.29.29,0,0,1,0,.12l0,0,.56.25v0a.5.5,0,0,1,.09-.13l2.35-2.5-.93,3.16a.35.35,0,0,1,0,.07.28.28,0,0,1-.05.08l.71.32a1.64,1.64,0,0,1,0-.19l1.14-3.91,0-.05,0,0,0,0-.6-.27,0,0a.28.28,0,0,1-.06.09l-2.48,2.62.34-3.57a1,1,0,0,1,0-.17l-.6-.27-.05.11,0,.06-2.21,3.36-.14.16.36.16.06-.15v0Zm-2.56-2.22c.77.46.84,1.27.19,2.35s-1.39,1.38-2.15.93-.85-1.27-.19-2.37S64.43,140.89,65.2,141.35Zm.18-.29a2.25,2.25,0,1,0,.69,3A2,2,0,0,0,65.37,141.06Zm-6.82.23,2.2-2.89.38.29a1.56,1.56,0,0,1,.16,2.36c-.7.92-1.55,1.15-2.27.6Zm1.82-3.64a.72.72,0,0,1-.11.18L57.87,141a.81.81,0,0,1-.15.15l1.22.93a2,2,0,0,0,3-.53,2,2,0,0,0-.47-3.06Z"/><path class="cls-18" d="M115.46,128.65a4,4,0,0,0-1.83,1.15,2.89,2.89,0,0,0-.78,1.54,2.31,2.31,0,0,0,.74,1.91,2,2,0,0,0,1.21.54,3.47,3.47,0,0,0,1.71-.4c1.27-.54,1.68-.57,2.14-.15a1.15,1.15,0,0,1,0,1.67,2.59,2.59,0,0,1-1.51.75l.43.71a3.91,3.91,0,0,0,1.48-1c1-1.09,1.06-2.41.15-3.23-.67-.62-1.44-.64-2.75-.11a9.26,9.26,0,0,1-1.16.42,1.19,1.19,0,0,1-1.13-.3,1.3,1.3,0,0,1,0-1.93,2.38,2.38,0,0,1,1.81-.76Zm6.85,2.74a1.43,1.43,0,0,1-.3-.2l-5.21-4.35a1.41,1.41,0,0,1-.25-.27l-.86,1a1.11,1.11,0,0,1,.3.2l5.21,4.35a1.12,1.12,0,0,1,.25.27Zm-2.16-9.12a4,4,0,0,0-1.66,1.38,2.89,2.89,0,0,0-.58,1.63,2.31,2.31,0,0,0,1,1.8,2,2,0,0,0,1.27.38,3.47,3.47,0,0,0,1.64-.62c1.19-.7,1.59-.78,2.1-.43a1.15,1.15,0,0,1,.2,1.65,2.59,2.59,0,0,1-1.4.94l.52.65a3.91,3.91,0,0,0,1.33-1.2c.85-1.21.73-2.52-.27-3.23-.75-.52-1.51-.45-2.74.25a9.21,9.21,0,0,1-1.1.57,1.19,1.19,0,0,1-1.16-.15A1.3,1.3,0,0,1,119,124a2.38,2.38,0,0,1,1.69-1Zm8.09-2.65-7.14.73-.22,0h-.11l-.54.95a.7.7,0,0,1,.32.12l5.91,3.38a1.09,1.09,0,0,1,.29.22l.33-.58a1.3,1.3,0,0,1-.33-.14l-4.9-2.8,7-.71a.52.52,0,0,1,.29,0l.59-1a1.38,1.38,0,0,1-.33-.14l-5.89-3.37a1.43,1.43,0,0,1-.29-.22l-.33.58a1.24,1.24,0,0,1,.34.14Zm3.82-5a1.22,1.22,0,0,1-.35-.11l-6.18-2.81a1.27,1.27,0,0,1-.31-.19L123.62,115l.6.27a1.72,1.72,0,0,1,.13-.41l.9-2,2.68,1.22-.91,2a1.39,1.39,0,0,1-.2.36l.55.25a1.17,1.17,0,0,1,.13-.4l.9-2,2.61,1.19-.93,2a1,1,0,0,1-.2.29l.55.25Zm-1.71-5.83,3,1-.26.73a1.4,1.4,0,0,1-1.94.88,1.57,1.57,0,0,1-1.1-1.12,1.69,1.69,0,0,1,.1-.9Zm-.54-.19-.26.75c-.56,1.6-.11,2.85,1.18,3.3s2.26-.18,2.76-1.61l.79-2.25a1.42,1.42,0,0,1-.35-.08l-6.41-2.24a1.58,1.58,0,0,1-.32-.16l-.45,1.28a1.19,1.19,0,0,1,.36.07Zm5.36-2.68a1.41,1.41,0,0,1-.36-.06l-6.48-2a1.48,1.48,0,0,1-.33-.15l-.4,1.28a1.14,1.14,0,0,1,.36.06l6.48,2a1.12,1.12,0,0,1,.33.15Zm1.73-7.12a2,2,0,0,1-.4.08l-7.16.83a1.21,1.21,0,0,1-.31,0l-.24,1.13.29.12,6.25,3.72a1.37,1.37,0,0,1,.28.22l.15-.68a.69.69,0,0,1-.28-.1l-5.4-3.24,6.22-.72a1,1,0,0,1,.25,0l.06,0Zm.29-4.21a2.06,2.06,0,0,1-1.11,1.64,4.82,4.82,0,0,1-2.48.23,4,4,0,0,1-2.35-1,1.92,1.92,0,0,1-.52-1.74,2,2,0,0,1,1-1.59,4.11,4.11,0,0,1,2.53-.34C136.4,92,137.4,93,137.19,94.56Zm-8.26,2.22a12.22,12.22,0,0,1,.7-1.4c.13-.18.24-.37.36-.55l.13-.23a3.22,3.22,0,0,0,.54,1.67,4,4,0,0,0,2.79,1.48,4.12,4.12,0,0,0,3.22-.75,3.87,3.87,0,0,0,1.11-2.39,3.8,3.8,0,0,0-.57-2.79,4.28,4.28,0,0,0-2.79-1.4,4.37,4.37,0,0,0-2.56.37,2.69,2.69,0,0,0-1.26,1.38,16.07,16.07,0,0,1-2.24,3.39Zm9.61-11.09a1.21,1.21,0,0,1-.36,0l-6.78-.37a1.26,1.26,0,0,1-.36-.06l-.21,3.89.66,0a1.73,1.73,0,0,1,0-.43l.12-2.17,2.94.16L134.4,89a1.39,1.39,0,0,1-.06.4l.61,0a1.18,1.18,0,0,1,0-.42l.12-2.18,2.87.16-.12,2.24a1,1,0,0,1-.08.35l.61,0Zm-3.45-4.86,3,.07v.53a1.47,1.47,0,0,1-.35,1,1.64,1.64,0,0,1-1.23.48,1.43,1.43,0,0,1-1.47-1.52Zm-.43,0-3.2,2.2a1.23,1.23,0,0,1-.33.15l0,1.64a.92.92,0,0,1,.3-.3l3.3-2.39a3.89,3.89,0,0,0,.21.84,1.74,1.74,0,0,0,1.68,1.23,2.1,2.1,0,0,0,2.09-2.31l.05-2.28a1.57,1.57,0,0,1-.36,0l-6.79-.15a1.25,1.25,0,0,1-.36-.05l0,1.35a1.36,1.36,0,0,1,.36,0Zm-.84-7,3.46.95L134,76.27Zm-.56-.14.19,2.79-2,.86a.82.82,0,0,1-.31.08l.1,1.46a1.37,1.37,0,0,1,.3-.2l6.76-3a1.08,1.08,0,0,1,.24-.07l-.07-1.08a1.29,1.29,0,0,1-.27,0l-7.07-2a1.64,1.64,0,0,1-.33-.14l0,.71a.93.93,0,0,1,.32,0Zm-3.19-9.09a4,4,0,0,0-.2,2.15,2.88,2.88,0,0,0,.75,1.56,2.31,2.31,0,0,0,2,.57,2,2,0,0,0,1.17-.63,3.47,3.47,0,0,0,.72-1.6c.34-1.34.57-1.68,1.18-1.79a1.15,1.15,0,0,1,1.32,1,2.59,2.59,0,0,1-.32,1.66l.83.09a3.9,3.9,0,0,0,.09-1.79c-.26-1.45-1.27-2.3-2.48-2.08-.9.16-1.39.75-1.76,2.12A9.24,9.24,0,0,1,133,67.1a1.19,1.19,0,0,1-.92.71,1.3,1.3,0,0,1-1.53-1.18,2.38,2.38,0,0,1,.5-1.9Zm6.43-3.71a1.44,1.44,0,0,1-.34.12l-6.64,1.41a1.46,1.46,0,0,1-.36,0l.28,1.31a1.13,1.13,0,0,1,.34-.12l6.64-1.41a1.12,1.12,0,0,1,.36,0Zm-7.47.85.64-.17a.91.91,0,0,1-.15-.36L129,59.2l6.33-1.66a1.32,1.32,0,0,1,.36,0l-.34-1.3a1.5,1.5,0,0,1-.34.13l-6.58,1.72a1.42,1.42,0,0,1-.35,0ZM129.1,52l3.59,0-2.78,2.29Zm-.58,0,.95,2.63L127.79,56a.82.82,0,0,1-.28.16l.5,1.38a1.35,1.35,0,0,1,.24-.28l5.68-4.73a1.12,1.12,0,0,1,.21-.14l-.37-1a1.24,1.24,0,0,1-.27,0l-7.34,0a1.64,1.64,0,0,1-.35,0l.24.67a.94.94,0,0,1,.31-.06Zm.47-8.6-3.64,6.19-.11.19-.07.08.44,1a.71.71,0,0,1,.29-.19l6.22-2.77a1.08,1.08,0,0,1,.35-.11l-.27-.61a1.32,1.32,0,0,1-.31.19l-5.15,2.29,3.58-6.08a.52.52,0,0,1,.18-.23L130,42.3a1.38,1.38,0,0,1-.31.19l-6.2,2.76a1.44,1.44,0,0,1-.35.11l.27.61a1.24,1.24,0,0,1,.31-.19Zm-2.25-5.93c.83,1.3.32,2.59-1.5,3.76s-3.19,1.07-4-.21-.35-2.6,1.52-3.8S125.91,36.2,126.74,37.5Zm.49-.32A3.43,3.43,0,0,0,122,36.11c-2.15,1.38-2.62,3.22-1.33,5.23s3.17,2.38,5.27,1S128.51,39.16,127.23,37.18Zm-3.89-5.62a1.43,1.43,0,0,1-.26.26L117.74,36a1.46,1.46,0,0,1-.31.19l.83,1.05a1.11,1.11,0,0,1,.26-.26l5.34-4.19a1.13,1.13,0,0,1,.31-.19Zm-3.76-4.67-.53.43a1.91,1.91,0,0,1,.34.33l1,1.27L115.37,33a1.27,1.27,0,0,1-.31.19l.85,1a1.27,1.27,0,0,1,.25-.26l5.05-4.12,1,1.27a2,2,0,0,1,.25.39l.53-.43ZM113,26.78l3.21-1.6-1.49,3.28Zm-.51.27,2,1.95-.9,2a.82.82,0,0,1-.18.27l1,1a1.37,1.37,0,0,1,.09-.35l3-6.74a1.12,1.12,0,0,1,.13-.22l-.77-.75a1.29,1.29,0,0,1-.23.15l-6.59,3.25a1.65,1.65,0,0,1-.33.12l.51.49a.94.94,0,0,1,.25-.19Zm-3.88-7.94-.07,7.18c0,.08,0,.15,0,.22l0,.11.88.64a.71.71,0,0,1,.15-.31l4-5.5a1.08,1.08,0,0,1,.25-.26l-.54-.39a1.31,1.31,0,0,1-.18.32l-3.33,4.55.08-7.05a.52.52,0,0,1,0-.29l-1-.7a1.36,1.36,0,0,1-.18.32l-4,5.48a1.43,1.43,0,0,1-.25.26l.54.39a1.25,1.25,0,0,1,.18-.32Zm-11.45.13a4,4,0,0,0,1.63,1.42,2.89,2.89,0,0,0,1.7.3,2.31,2.31,0,0,0,1.62-1.26,2,2,0,0,0,.17-1.32,3.47,3.47,0,0,0-.88-1.52c-.89-1.06-1-1.44-.76-2a1.15,1.15,0,0,1,1.6-.47,2.59,2.59,0,0,1,1.16,1.23l.56-.62a3.9,3.9,0,0,0-1.4-1.12c-1.33-.64-2.61-.31-3.14.79-.39.82-.2,1.56.69,2.67a9.23,9.23,0,0,1,.74,1,1.19,1.19,0,0,1,0,1.17,1.3,1.3,0,0,1-1.85.55,2.38,2.38,0,0,1-1.25-1.51ZM93,15.44l2.05-2.94.26,3.59Zm-.32.48,2.69.75.14,2.16a.81.81,0,0,1,0,.32l1.41.39a1.36,1.36,0,0,1-.09-.35l-.57-7.37a1.1,1.1,0,0,1,0-.25l-1-.29a1.27,1.27,0,0,1-.13.24l-4.23,6a1.64,1.64,0,0,1-.24.26l.68.19a.93.93,0,0,1,.13-.29Zm-5.4-6.2-.11.68a1.9,1.9,0,0,1,.48,0l1.61.25-1,6.44a1.27,1.27,0,0,1-.1.35l1.32.21a1.25,1.25,0,0,1,0-.36l1-6.44,1.61.25a2,2,0,0,1,.45.13l.11-.68Zm-2.75-.06a1.46,1.46,0,0,1,0,.36l-.16,6.79a1.45,1.45,0,0,1-.05.36l1.34,0a1.13,1.13,0,0,1,0-.36l.16-6.79a1.12,1.12,0,0,1,.05-.36ZM78.78,17a4,4,0,0,0,2.13.34,2.89,2.89,0,0,0,1.61-.64,2.31,2.31,0,0,0,.71-1.92,2,2,0,0,0-.55-1.21,3.47,3.47,0,0,0-1.55-.83c-1.32-.43-1.64-.68-1.71-1.3a1.15,1.15,0,0,1,1.11-1.24,2.59,2.59,0,0,1,1.63.43l.15-.82a3.9,3.9,0,0,0-1.78-.21c-1.47.16-2.38,1.11-2.25,2.33.1.91.66,1.43,2,1.9a9.22,9.22,0,0,1,1.15.45,1.19,1.19,0,0,1,.65,1,1.3,1.3,0,0,1-1.28,1.44,2.38,2.38,0,0,1-1.86-.62Zm-4.84-2.57-.71-3,.51-.12a1.47,1.47,0,0,1,1.08.08,1.63,1.63,0,0,1,.78,1.06,1.43,1.43,0,0,1-1.09,1.81Zm.11.41L77,17.38a1.22,1.22,0,0,1,.23.28l1.6-.38a.91.91,0,0,1-.36-.21l-3.15-2.58a3.9,3.9,0,0,0,.76-.41,1.74,1.74,0,0,0,.76-1.94,2.1,2.1,0,0,0-2.76-1.43l-2.22.53a1.58,1.58,0,0,1,.13.34l1.58,6.6a1.28,1.28,0,0,1,0,.36l1.31-.31a1.37,1.37,0,0,1-.13-.34Zm-7.76-1.7a1.2,1.2,0,0,1,.17.32l2.35,6.37a1.27,1.27,0,0,1,.08.35l3.65-1.35-.23-.62a1.71,1.71,0,0,1-.38.2l-2,.75-1-2.77,2.06-.76a1.4,1.4,0,0,1,.39-.11L71.11,15a1.19,1.19,0,0,1-.37.19l-2,.76-1-2.69,2.1-.78a1,1,0,0,1,.35-.07l-.21-.57Zm-6.91,3.62a1.92,1.92,0,0,1,.32.24l5.38,4.79a1.2,1.2,0,0,1,.22.22l1-.58a1.87,1.87,0,0,1-.1-.29L64.82,14a1.37,1.37,0,0,1,0-.35L64.2,14a.69.69,0,0,1,.11.28l1.17,6.19-4.67-4.16a1,1,0,0,1-.17-.19.2.2,0,0,1,0-.06ZM57.57,18a1.45,1.45,0,0,1,.23.28L61.52,24a1.43,1.43,0,0,1,.16.33l1.12-.73a1.12,1.12,0,0,1-.23-.28l-3.71-5.68a1.12,1.12,0,0,1-.16-.33Zm-5.1,5.77,6.92,1.9.21.06.1.05.85-.69a.71.71,0,0,1-.26-.23L56,19.58a1.08,1.08,0,0,1-.19-.31l-.52.42a1.31,1.31,0,0,1,.26.25l3.56,4.38-6.8-1.87a.52.52,0,0,1-.27-.12l-.93.75a1.37,1.37,0,0,1,.26.25l4.28,5.27a1.43,1.43,0,0,1,.19.31l.52-.42a1.27,1.27,0,0,1-.26-.25Zm-6.58,4.92a2,2,0,0,1,.38.13l6.59,2.91a1.2,1.2,0,0,1,.28.15l.78-.86a1.85,1.85,0,0,1-.19-.25L50.23,24.4a1.4,1.4,0,0,1-.13-.33l-.47.51a.69.69,0,0,1,.19.23l3,5.53-5.72-2.53a1,1,0,0,1-.22-.13l0-.05Zm-3.17,4,1.34,2.11.67-.43-1.12-2.25Zm-1,1.39,1.34,2.11.67-.43-1.12-2.25Zm2.67,9.42A4,4,0,0,0,46,42a2.88,2.88,0,0,0,.43-1.68,2.31,2.31,0,0,0-1.14-1.7,2,2,0,0,0-1.3-.26,3.47,3.47,0,0,0-1.58.77c-1.12.81-1.51.92-2.05.62A1.15,1.15,0,0,1,40,38.1,2.59,2.59,0,0,1,41.26,37l-.58-.6a3.91,3.91,0,0,0-1.22,1.31c-.73,1.28-.5,2.58.56,3.19.79.45,1.55.31,2.71-.5a9.18,9.18,0,0,1,1-.66,1.19,1.19,0,0,1,1.17,0,1.3,1.3,0,0,1,.41,1.88,2.38,2.38,0,0,1-1.6,1.14ZM35.33,46a1.94,1.94,0,0,1,.4,0l7.15.94a1.18,1.18,0,0,1,.31.06l.51-1a1.88,1.88,0,0,1-.25-.18l-5.16-5.13a1.39,1.39,0,0,1-.21-.28l-.31.63a.7.7,0,0,1,.24.17l4.45,4.45-6.2-.81a1,1,0,0,1-.25-.06l-.06,0Zm-1,6.64,6.89-2,.21-.06h.11l.36-1a.7.7,0,0,1-.34-.06L35.1,47.21a1.08,1.08,0,0,1-.33-.16l-.22.63a1.32,1.32,0,0,1,.35.08l5.32,1.86-6.77,2a.51.51,0,0,1-.29,0l-.39,1.13a1.36,1.36,0,0,1,.35.08l6.41,2.24a1.44,1.44,0,0,1,.32.16l.22-.63a1.24,1.24,0,0,1-.35-.08Zm-2.4,3a1.45,1.45,0,0,1,.36.06l6.48,2a1.46,1.46,0,0,1,.33.15l.4-1.28a1.14,1.14,0,0,1-.36-.06l-6.48-2a1.13,1.13,0,0,1-.33-.15Zm-1.59,6,.66.17a1.92,1.92,0,0,1,.06-.47l.41-1.58,6.31,1.65a1.27,1.27,0,0,1,.34.13l.34-1.3a1.26,1.26,0,0,1-.36,0l-6.31-1.65.41-1.58a2,2,0,0,1,.17-.43l-.66-.17Zm6,6.48a4,4,0,0,0,1-1.93,2.88,2.88,0,0,0-.14-1.72,2.31,2.31,0,0,0-1.63-1.24,2,2,0,0,0-1.32.17,3.47,3.47,0,0,0-1.25,1.24c-.8,1.13-1.13,1.36-1.74,1.24a1.15,1.15,0,0,1-.86-1.43,2.59,2.59,0,0,1,.9-1.43l-.74-.38a3.9,3.9,0,0,0-.73,1.64c-.28,1.45.36,2.6,1.56,2.84.9.17,1.56-.2,2.4-1.35a9.21,9.21,0,0,1,.77-1,1.19,1.19,0,0,1,1.12-.33,1.3,1.3,0,0,1,1,1.65,2.38,2.38,0,0,1-1.15,1.59Zm-7.67,5.5a2,2,0,0,1,.38-.12l7-1.6a1.2,1.2,0,0,1,.31,0l.12-1.15-.3-.09-6.62-3a1.39,1.39,0,0,1-.3-.19l-.07.69a.69.69,0,0,1,.29.07l5.72,2.63-6.1,1.39a1,1,0,0,1-.25,0l-.07,0Zm.16,1.08a5.44,5.44,0,0,0-.45,2.08,3.57,3.57,0,0,0,3.81,3.91,4,4,0,0,0,2.93-1,3.37,3.37,0,0,0,1-2.57,6.85,6.85,0,0,0-.46-2.6,1,1,0,0,1-.45.07l-2.89-.07a1.37,1.37,0,0,1-.36-.05l0,1.31a1.26,1.26,0,0,1,.36,0l2.94.07A2.07,2.07,0,0,1,35.45,77c0,1.54-1.24,2.4-3.27,2.36a3.52,3.52,0,0,1-2.5-.82A2.32,2.32,0,0,1,29,76.7a3.35,3.35,0,0,1,.76-2ZM28.41,86.9a1.94,1.94,0,0,1,.37-.16l6.81-2.36a1.19,1.19,0,0,1,.3-.08V83.14l-.3-.05-6.91-2.28a1.36,1.36,0,0,1-.32-.15v.7a.69.69,0,0,1,.29,0l6,2-5.91,2a1,1,0,0,1-.25.06h-.07Zm5.15,4.17-3.49-.83,3.25-1.55Zm.57.12-.28-2.78,2-.92a.81.81,0,0,1,.31-.09L36,86a1.37,1.37,0,0,1-.3.21L29,89.39a1.1,1.1,0,0,1-.24.08l.11,1.08a1.26,1.26,0,0,1,.27,0l7.14,1.74a1.65,1.65,0,0,1,.33.13l-.07-.71a.93.93,0,0,1-.32,0Zm3.52,9A4,4,0,0,0,37.77,98a2.88,2.88,0,0,0-.8-1.53A2.31,2.31,0,0,0,35,96a2,2,0,0,0-1.15.67,3.47,3.47,0,0,0-.67,1.63c-.3,1.35-.51,1.7-1.12,1.83a1.15,1.15,0,0,1-1.35-1A2.59,2.59,0,0,1,31,97.45l-.83-.07a3.91,3.91,0,0,0,0,1.79c.31,1.44,1.34,2.26,2.54,2,.89-.19,1.36-.8,1.69-2.18a9.25,9.25,0,0,1,.33-1.19,1.19,1.19,0,0,1,.9-.74,1.3,1.3,0,0,1,1.56,1.13,2.38,2.38,0,0,1-.43,1.91ZM32.39,108a1.91,1.91,0,0,1,.32-.25l6-4a1.2,1.2,0,0,1,.27-.15l-.29-1.12-.31,0L31.15,102a1.37,1.37,0,0,1-.35-.07l.18.67a.69.69,0,0,1,.29,0l6.28.47-5.23,3.43a1,1,0,0,1-.23.12H32Zm2.14,5.72.65-.23A1.93,1.93,0,0,1,35,113l-.55-1.54,6.13-2.21a1.26,1.26,0,0,1,.35-.08L40.45,108a1.27,1.27,0,0,1-.32.16L34,110.32l-.55-1.54a2,2,0,0,1-.1-.45l-.65.23Zm.36.36a4.28,4.28,0,0,0,.44,1.76,3.47,3.47,0,0,0,5.07,1.88c2.3-1.06,3-2.82,2-5a4,4,0,0,0-1.23-1.59l-.9.42a2.3,2.3,0,0,1,1.46,1.26c.64,1.39-.11,2.83-1.9,3.65s-3.32.49-4-.91a2.51,2.51,0,0,1-.09-1.93Zm6.73,10.62,3.09-6.48.1-.2.07-.09-.53-1a.7.7,0,0,1-.27.21l-6,3.3a1.08,1.08,0,0,1-.34.13l.32.58a1.31,1.31,0,0,1,.29-.21l4.93-2.73-3,6.36a.52.52,0,0,1-.16.24l.58,1a1.37,1.37,0,0,1,.29-.21l5.94-3.28a1.45,1.45,0,0,1,.34-.14l-.32-.58a1.25,1.25,0,0,1-.29.21Zm6.6,3.66-3.4,1.16,1.92-3Zm.55-.2L47,125.93l1.16-1.82a.82.82,0,0,1,.21-.24l-.9-1.15a1.34,1.34,0,0,1-.14.34l-3.91,6.28a1.12,1.12,0,0,1-.16.2l.67.85a1.24,1.24,0,0,1,.25-.12l7-2.34a1.65,1.65,0,0,1,.35-.07l-.44-.56a.93.93,0,0,1-.28.16Zm5.53,3.56a4,4,0,0,0-1-1.94,2.89,2.89,0,0,0-1.45-.94,2.31,2.31,0,0,0-2,.54,2,2,0,0,0-.66,1.15,3.47,3.47,0,0,0,.23,1.74c.41,1.32.39,1.73-.07,2.14a1.15,1.15,0,0,1-1.66-.18,2.59,2.59,0,0,1-.59-1.58l-.75.36a3.9,3.9,0,0,0,.86,1.57c1,1.1,2.28,1.3,3.2.48.68-.61.79-1.37.39-2.73a9.19,9.19,0,0,1-.3-1.2A1.19,1.19,0,0,1,51,130a1.3,1.3,0,0,1,1.92.21,2.38,2.38,0,0,1,.57,1.87Zm-1.89,4.5-2.24,1.1.35.71,2.36-.86Zm1.28,1.12-2.24,1.1.35.71,2.36-.86Z"/></g></g></svg>